<?xml version="1.0" standalone="no"?>
<!DOCTYPE svg PUBLIC "-//W3C//DTD SVG 20010904//EN"
 "http://www.w3.org/TR/2001/REC-SVG-20010904/DTD/svg10.dtd">
<svg version="1.0" xmlns="http://www.w3.org/2000/svg"
 width="700.000000pt" height="700.000000pt" viewBox="0 0 700.000000 700.000000"
 preserveAspectRatio="xMidYMid meet">
<metadata>
Created by potrace 1.11, written by Peter Selinger 2001-2013
</metadata>
<g transform="translate(0.000000,700.000000) scale(0.100000,-0.100000)"
fill="#000000" stroke="none">
<path d="M3371 5604 c-134 -36 -267 -143 -329 -265 -34 -68 -62 -176 -62 -246
l0 -43 531 0 532 0 -6 78 c-11 138 -61 249 -156 342 -65 63 -151 113 -236 135
-73 19 -202 18 -274 -1z"/>
<path d="M1510 5179 c-69 -28 -120 -92 -134 -170 -13 -71 84 -386 180 -588
124 -261 262 -417 452 -511 176 -87 416 -81 625 17 42 20 79 34 81 32 1 -2 47
-191 100 -420 l97 -416 -101 -589 c-60 -347 -102 -617 -102 -656 0 -82 31
-158 89 -214 45 -45 397 -259 411 -250 5 3 76 128 158 277 166 306 160 272 62
327 -33 19 -48 33 -47 47 0 11 17 117 37 235 l37 215 55 3 56 3 33 -208 34
-208 -299 -545 c-164 -300 -307 -570 -317 -600 -39 -114 -4 -244 89 -329 64
-58 124 -81 214 -81 98 0 155 23 219 89 47 48 104 147 392 676 244 446 341
635 350 674 13 63 18 24 -87 640 l-84 494 97 416 c53 229 99 420 103 424 4 4
45 -10 91 -33 132 -63 227 -83 373 -78 143 5 212 25 326 96 150 93 275 245
380 464 101 210 196 516 184 594 -8 59 -43 114 -92 149 -40 27 -51 30 -120 30
-68 0 -82 -3 -118 -28 -48 -32 -86 -97 -104 -177 -20 -85 -87 -276 -130 -368
-106 -226 -222 -336 -355 -335 -107 1 -230 63 -364 186 -39 36 -88 71 -108 79
-56 19 -1450 19 -1506 0 -20 -8 -69 -43 -108 -79 -189 -173 -354 -227 -480
-156 -145 81 -275 327 -383 724 -17 62 -68 122 -122 145 -38 16 -127 17 -164
3z"/>
<path d="M301 4920 c-22 -50 -41 -95 -41 -100 0 -6 208 -10 555 -10 305 0 555
3 555 8 0 4 -7 32 -15 62 -8 30 -15 72 -15 93 l0 37 -499 0 -498 0 -42 -90z"/>
<path d="M1846 4986 c3 -13 16 -56 28 -97 l23 -74 1623 0 1624 0 21 70 c12 39
25 82 29 98 l6 27 -1680 0 -1680 0 6 -24z"/>
<path d="M5700 4968 c0 -24 -7 -65 -15 -92 -8 -27 -15 -53 -15 -58 0 -4 241
-8 535 -8 334 0 535 4 535 10 0 5 -19 50 -41 100 l-42 90 -478 0 -479 0 0 -42z"/>
<path d="M3100 4761 c18 -34 112 -109 175 -140 62 -31 63 -31 235 -31 l173 0
63 31 c60 30 184 130 184 150 0 5 -172 9 -420 9 -411 0 -420 0 -410 -19z"/>
<path d="M3972 1318 c-106 -195 -139 -264 -130 -270 23 -16 139 0 194 27 105
52 165 146 172 271 4 73 1 88 -22 140 -26 56 -52 94 -65 94 -4 0 -71 -118
-149 -262z"/>
</g>
</svg>
